<?xml version="1.0" encoding="iso-8859-1"?>
<!-- Generator: Adobe Illustrator 19.0.0, SVG Export Plug-In . SVG Version: 6.00 Build 0)  -->
<svg version="1.1" id="Layer_1" xmlns="http://www.w3.org/2000/svg" xmlns:xlink="http://www.w3.org/1999/xlink" x="0px" y="0px"
	 viewBox="0 0 480 480" style="enable-background:new 0 0 480 480;" xml:space="preserve">
<rect x="40" y="40" style="fill:#D4DDCE;" width="328" height="328"/>
<path style="fill:#656D60;" d="M480,480H144V144h336V480z M184,440h256V184H184V440z"/>
<rect style="fill:#4EAF0E;" width="328" height="328"/>
<path style="fill:#F763BB;" d="M165.6,467.2c-2.4,0-4-0.8-5.6-2.4c-3.2-3.2-3.2-8,0-11.2L453.6,160c3.2-3.2,8-3.2,11.2,0
	s3.2,8,0,11.2L171.2,464.8C169.6,466.4,167.2,467.2,165.6,467.2z"/>
<polygon style="fill:#41443E;" points="184,440 184,184 440,184 480,144 144,144 144,480 "/>
<rect style="fill:#5EC11E;" width="328" height="328"/>
<polyline style="fill:#4EAF0E;" points="328,0 328,328 0,328 "/>
<g>
</g>
<g>
</g>
<g>
</g>
<g>
</g>
<g>
</g>
<g>
</g>
<g>
</g>
<g>
</g>
<g>
</g>
<g>
</g>
<g>
</g>
<g>
</g>
<g>
</g>
<g>
</g>
<g>
</g>
</svg>
