<?xml version="1.0" encoding="utf-8"?>
<!-- Generator: Adobe Illustrator 23.0.1, SVG Export Plug-In . SVG Version: 6.00 Build 0)  -->
<svg version="1.0" id="Layer_1" xmlns="http://www.w3.org/2000/svg" xmlns:xlink="http://www.w3.org/1999/xlink" x="0px" y="0px"
	 viewBox="0 0 348.21 126.3" style="enable-background:new 0 0 348.21 126.3;" xml:space="preserve">
<style type="text/css">
	.st0{display:none;}
	.st1{display:inline;opacity:0.33;fill:#840036;stroke:#000000;stroke-width:2;stroke-miterlimit:10;enable-background:new    ;}
	.st2{display:inline;}
	.st3{fill:url(#SVGID_1_);}
	.st4{fill:url(#SVGID_2_);}
	.st5{fill:url(#SVGID_3_);}
	.st6{fill:url(#SVGID_4_);}
	.st7{fill:url(#SVGID_5_);}
	.st8{fill:url(#SVGID_6_);}
	.st9{display:none;fill:#3A3434;}
	.st10{display:inline;fill:#0E3CA5;}
	.st11{fill:#2D88E2;}
	.st12{fill:#FFFFFF;}
	.st13{fill:#595959;}
</style>
<g class="st0">
	<polygon class="st1" points="189.26,142.2 109.5,96.57 189.26,49.52 269.19,96.1 	"/>
	<polygon class="st1" points="185.02,93.56 109.45,45.72 187.01,4.61 267.24,48.72 	"/>
	<polygon class="st1" points="188.26,188.53 108.5,142.91 188.26,95.86 268.19,142.44 	"/>
</g>
<g class="st0">
	<g class="st2">
		
			<linearGradient id="SVGID_1_" gradientUnits="userSpaceOnUse" x1="44.7" y1="-17.445" x2="191.55" y2="-17.445" gradientTransform="matrix(1 0 0 -1 0 128)">
			<stop  offset="0" style="stop-color:#FFFFFF"/>
			<stop  offset="1" style="stop-color:#EFEFEF"/>
		</linearGradient>
		<polygon class="st3" points="191.55,147.58 122.05,103.39 44.7,141.88 48.98,148.65 121.69,187.15 127.4,187.5 191.2,151.15 		"/>
		
			<linearGradient id="SVGID_2_" gradientUnits="userSpaceOnUse" x1="153.2934" y1="-92.6306" x2="67.5964" y2="-6.9335" gradientTransform="matrix(0.9707 -0.0133 -0.0203 -0.9099 9.0886 102.7288)">
			<stop  offset="0" style="stop-color:#4B88EC"/>
			<stop  offset="8.567870e-03" style="stop-color:#4A87EB"/>
			<stop  offset="0.6759" style="stop-color:#1F51B9"/>
			<stop  offset="1" style="stop-color:#0E3CA5"/>
		</linearGradient>
		<path class="st4" d="M192.34,144.32l-71.3-44.57c-1.6-1-3.62-1.06-5.28-0.15l-73.22,40.19c-1.71,0.94-2.72,2.66-2.71,4.61
			c0.01,1.95,1.05,3.66,2.77,4.58l78.56,41.76l0,0c0.72,0.38,1.5,0.59,2.29,0.61c0.94,0.03,1.88-0.2,2.73-0.68l65.96-37.38
			c1.62-0.92,2.61-2.57,2.65-4.43C194.83,147,193.91,145.3,192.34,144.32z M188.05,151.97l-16.19,8.48
			c-3.1-6.12-9.81-10.54-17.78-10.93c-11.33-0.55-20.92,7.22-21.42,17.36c-0.2,3.99,5.45,6.73,8.39,9.7l-15.74,8.24
			c-0.63,0.33-1.39,0.33-2.02-0.01l-73.4-39.41c-0.68-0.37-1.09-1.04-1.08-1.79s0.42-1.41,1.12-1.77l69.62-35.27
			c0.67-0.34,1.48-0.3,2.12,0.1l66.52,41.83c0.63,0.4,0.98,1.05,0.95,1.78S188.72,151.62,188.05,151.97z"/>
	</g>
	<g class="st2">
		
			<linearGradient id="SVGID_3_" gradientUnits="userSpaceOnUse" x1="43.28" y1="16.95" x2="194.05" y2="16.95" gradientTransform="matrix(1 0 0 -1 0 128)">
			<stop  offset="0" style="stop-color:#FFFFFF"/>
			<stop  offset="1" style="stop-color:#EFEFEF"/>
		</linearGradient>
		<polygon class="st5" points="193.34,109.8 117.06,67.74 43.28,106.59 44.35,111.23 115.63,154.36 122.76,152.93 187.28,119.07 
			193.69,115.5 194.05,111.58 		"/>
		
			<linearGradient id="SVGID_4_" gradientUnits="userSpaceOnUse" x1="164.4891" y1="-29.5201" x2="86.216" y2="48.753" gradientTransform="matrix(1.0191 0.0321 0.0303 -0.9639 -9.9654 115.5576)">
			<stop  offset="0" style="stop-color:#4B88EC"/>
			<stop  offset="8.567870e-03" style="stop-color:#4A87EB"/>
			<stop  offset="0.6759" style="stop-color:#1F51B9"/>
			<stop  offset="1" style="stop-color:#0E3CA5"/>
		</linearGradient>
		<path class="st6" d="M193.23,107.93l-71.13-44.5c-1.6-1-3.62-1.06-5.28-0.15l-73.66,40.39c-1.65,0.9-2.66,2.57-2.71,4.45
			s0.88,3.59,2.49,4.58l71,43.64c0.78,0.48,1.67,0.74,2.57,0.77s1.81-0.18,2.63-0.61l73.8-39.52c1.66-0.89,2.69-2.54,2.75-4.43
			C195.74,110.65,194.82,108.93,193.23,107.93z M191.7,115.75l-72.51,36.64c-0.68,0.35-1.51,0.32-2.17-0.06l-39.7-23.12
			c0.63-0.16,1.25-0.35,1.88-0.58c8.24-3,13.12-10.72,10.9-17.24s-10.7-9.38-18.93-6.38c-6.89,2.51-11.41,8.32-11.41,13.96
			l-12.62-7.35c-0.67-0.39-1.06-1.07-1.04-1.81s0.44-1.4,1.13-1.76L119.6,70.6c0.35-0.18,0.73-0.26,1.12-0.25
			c0.38,0.01,0.76,0.12,1.09,0.32l70.03,41.52c0.67,0.4,1.05,1.08,1.03,1.82S192.4,115.4,191.7,115.75z"/>
	</g>
	<g class="st2">
		
			<linearGradient id="SVGID_5_" gradientUnits="userSpaceOnUse" x1="154.0425" y1="19.0787" x2="79.7175" y2="93.9513" gradientTransform="matrix(1 0 0 -1 0 128)">
			<stop  offset="0" style="stop-color:#FFFFFF"/>
			<stop  offset="1" style="stop-color:#EFEFEF"/>
		</linearGradient>
		<polygon class="st7" points="126.33,37.45 117.06,29.96 44.7,68.81 62.88,83.43 113.5,116.22 189.06,74.16 		"/>
		
			<linearGradient id="SVGID_6_" gradientUnits="userSpaceOnUse" x1="145.1281" y1="12.8769" x2="62.3038" y2="95.7013" gradientTransform="matrix(0.9992 -0.0405 -0.0405 -0.9992 15.4749 129.7953)">
			<stop  offset="0" style="stop-color:#4B88EC"/>
			<stop  offset="8.567870e-03" style="stop-color:#4A87EB"/>
			<stop  offset="0.6759" style="stop-color:#1F51B9"/>
			<stop  offset="1" style="stop-color:#0E3CA5"/>
		</linearGradient>
		<path class="st8" d="M190.74,68.13l-72.51-39.87c-1.55-0.85-3.4-0.86-4.96-0.04L43.15,65.39c-1.66,0.88-2.7,2.53-2.77,4.41
			c-0.07,1.88,0.83,3.6,2.42,4.61l68.3,43.24c0.85,0.54,1.82,0.81,2.79,0.81c0.86,0,1.72-0.21,2.5-0.64l74.33-40.54
			c1.7-0.93,2.72-2.64,2.72-4.57S192.44,69.06,190.74,68.13z M184.35,75.64l-69.9,36.66c-0.67,0.35-1.47,0.31-2.1-0.1L49.34,70.86
			c-0.62-0.41-0.97-1.1-0.93-1.84c0.04-0.75,0.46-1.39,1.13-1.73l65.92-33.58c0.62-0.32,1.36-0.3,1.97,0.05l13.87,7.92
			c-1.35,0.17-2.65,0.77-3.69,1.77c-0.01,0.01-0.03,0.03-0.04,0.04c-11.52,11.15-14.31,26.96-6.23,35.3s23.97,6.07,35.49-5.08
			c1.49-1.44,2.83-2.96,4.02-4.53c0.83-1.09,1.27-2.43,1.3-3.8l0.06-3.79c0.01-0.89-0.15-1.75-0.47-2.54l22.69,12.96
			c0.67,0.38,1.06,1.07,1.04,1.84C185.44,74.62,185.03,75.29,184.35,75.64z"/>
	</g>
</g>
<g>
	<g>
		<g class="st0">
			<path class="st10" d="M129.75,107.89l2.88-3.72c1.87,1.61,3.89,2.42,6.05,2.42c1.39,0,2.13-0.49,2.13-1.38v-0.06
				c0-0.81-0.61-1.33-3.15-1.93c-3.95-0.98-7.04-2.16-7.04-6.34v-0.06c0-3.78,2.75-6.46,7.23-6.46c3.2,0,5.65,0.92,7.68,2.68
				l-2.59,3.95c-1.71-1.3-3.55-1.99-5.23-1.99c-1.25,0-1.87,0.58-1.87,1.3v0.06c0,0.89,0.67,1.36,3.23,1.96
				c4.29,1.01,6.96,2.51,6.96,6.29v0.06c0,4.12-3.01,6.57-7.55,6.57C135.17,111.24,132.07,110.11,129.75,107.89z"/>
			<path class="st10" d="M147.67,103.16v-0.06c0-4.47,3.39-8.16,8-8.16s7.95,3.66,7.95,8.1v0.06c0,4.47-3.39,8.16-8,8.16
				S147.67,107.63,147.67,103.16z M158.69,103.16v-0.06c0-1.9-1.28-3.52-3.07-3.52c-1.84,0-3.01,1.59-3.01,3.46v0.06
				c0,1.9,1.28,3.52,3.07,3.52C157.52,106.62,158.69,105.04,158.69,103.16z"/>
			<path class="st10" d="M165.86,89.84h5.07v21.05h-5.07V89.84z"/>
			<path class="st10" d="M173.65,105.5V95.29h5.07v8.45c0,1.73,0.8,2.62,2.05,2.62c1.2,0,2.11-0.89,2.11-2.62v-8.45h5.07v15.6h-5.07
				v-2.13c-0.93,1.3-2.27,2.48-4.32,2.48C175.46,111.24,173.65,109.07,173.65,105.5z"/>
			<path class="st10" d="M191.55,106.05V99.7h-1.71v-4.41h1.71v-3.95h5.07v3.95h3.36v4.41h-3.36v5.28c0,1.12,0.45,1.56,1.39,1.56
				c0.67,0,1.31-0.2,1.92-0.52v4.3c-0.93,0.55-2.11,0.89-3.52,0.89C193.33,111.21,191.55,109.77,191.55,106.05z"/>
			<path class="st10" d="M202.16,89.84h5.28v4.04h-5.28V89.84z M202.27,95.29h5.07v15.6h-5.07V95.29z"/>
			<path class="st10" d="M209.57,103.16v-0.06c0-4.47,3.39-8.16,8-8.16s7.95,3.66,7.95,8.1v0.06c0,4.47-3.39,8.16-8,8.16
				C212.91,111.27,209.57,107.63,209.57,103.16z M220.59,103.16v-0.06c0-1.9-1.28-3.52-3.07-3.52c-1.84,0-3.01,1.59-3.01,3.46v0.06
				c0,1.9,1.28,3.52,3.07,3.52C219.41,106.62,220.59,105.04,220.59,103.16z"/>
			<path class="st10" d="M227.66,95.29h5.07v2.19c0.93-1.3,2.27-2.54,4.32-2.54c3.09,0,4.91,2.16,4.91,5.74v10.21h-5.07v-8.45
				c0-1.73-0.83-2.62-2.03-2.62c-1.25,0-2.13,0.89-2.13,2.62v8.45h-5.07V95.29z"/>
		</g>
		<g>
			<rect x="9.97" y="10.34" class="st11" width="106.17" height="106.17"/>
			<g>
				<path class="st12" d="M31.96,79.83l-6.7,6.95v14.07h22.01L31.96,79.83z"/>
				<path class="st12" d="M100.92,26.13H25.26v43.23l26.29-28.32H69.5L41.99,69.7l23.04,31.16h35.89V26.13z"/>
			</g>
		</g>
	</g>
	<g>
		<path class="st11" d="M143.03,14.83h16.69v26.41l20.73-26.41h19.78l-22.79,27.99L201,79.93h-20.04l-15.14-24.17l-6.1,7.34v16.83
			h-16.69L143.03,14.83L143.03,14.83z"/>
		<path class="st11" d="M216.82,65.51v-0.19c0-10.41,7.31-15.81,18.24-15.81c4.38,0,8.52,0.93,11.18,1.95v-0.83
			c0-5.2-3.01-8.18-9.29-8.18c-4.91,0-8.68,1.02-12.81,2.79l-3.36-12.46c5.25-2.33,10.84-3.91,18.84-3.91
			c8.34,0,14.02,2.14,17.72,6.13c3.52,3.72,4.98,8.92,4.98,15.99v28.92h-16.17v-5.2c-3.18,3.81-7.49,6.32-13.68,6.32
			C223.62,81.04,216.82,75.56,216.82,65.51z M246.41,61.69v-2.33c-1.64-0.74-3.95-1.31-6.37-1.31c-4.82,0-7.49,2.51-7.49,6.23v0.19
			c0,3.44,2.4,5.48,5.76,5.48C243.14,69.97,246.41,66.81,246.41,61.69z"/>
		<path class="st11" d="M280.75,29.61h16.34v7.06c3.01-4.19,7.31-8.18,13.93-8.18c9.98,0,15.82,6.98,15.82,18.5v32.92h-16.34V52.68
			c0-5.58-2.67-8.46-6.53-8.46c-4.04,0-6.88,2.88-6.88,8.46v27.24h-16.34L280.75,29.61L280.75,29.61z"/>
	</g>
	<g>
		<g>
			<path class="st13" d="M143.7,109.64l1.93-2.31c1.35,1.1,2.74,1.8,4.43,1.8c1.35,0,2.14-0.53,2.14-1.4v-0.04
				c0-0.83-0.51-1.27-2.99-1.88c-3.01-0.74-4.92-1.61-4.92-4.53v-0.04c0-2.69,2.14-4.47,5.19-4.47c2.18,0,3.99,0.68,5.5,1.88
				l-1.69,2.46c-1.34-0.91-2.58-1.46-3.85-1.46c-1.27,0-1.9,0.55-1.9,1.3v0.04c0,1,0.63,1.27,3.2,1.95
				c3.01,0.81,4.71,1.86,4.71,4.45v0.04c0,2.95-2.25,4.6-5.45,4.6C147.73,112.01,145.49,111.24,143.7,109.64z"/>
			<path class="st13" d="M172.34,106.18v-0.04c0-3.27,2.62-5.91,6.17-5.91c3.5,0,6.12,2.58,6.12,5.87v0.04
				c0,3.27-2.62,5.91-6.17,5.91C174.96,112.05,172.34,109.46,172.34,106.18z M181.45,106.18v-0.04c0-1.67-1.21-3.13-2.99-3.13
				c-1.84,0-2.95,1.4-2.95,3.09v0.04c0,1.67,1.21,3.13,2.99,3.13C180.34,109.27,181.45,107.88,181.45,106.18z"/>
			<path class="st13" d="M201.04,96.33h3.22v15.47h-3.22V96.33z"/>
			<path class="st13" d="M221.14,107.79v-7.35h3.22v6.33c0,1.53,0.7,2.3,1.95,2.3s2.02-0.79,2.02-2.3v-6.33h3.22v11.35h-3.22v-1.61
				c-0.74,0.95-1.72,1.83-3.32,1.83C222.53,112.01,221.14,110.41,221.14,107.79z"/>
			<path class="st13" d="M248.89,108.57v-5.38h-1.35v-2.76h1.35v-2.9h3.22v2.9h2.67v2.76h-2.67v4.85c0,0.74,0.34,1.1,1.04,1.1
				c0.58,0,1.1-0.13,1.58-0.4v2.58c-0.68,0.4-1.46,0.65-2.55,0.65C250.25,111.99,248.89,111.2,248.89,108.57z"/>
			<path class="st13" d="M270.14,96.33h3.39v2.86h-3.39V96.33z M270.22,100.44h3.22v11.35h-3.22V100.44z"/>
			<path class="st13" d="M289.86,106.18v-0.04c0-3.27,2.62-5.91,6.17-5.91c3.5,0,6.12,2.58,6.12,5.87v0.04
				c0,3.27-2.62,5.91-6.17,5.91C292.49,112.05,289.86,109.46,289.86,106.18z M298.97,106.18v-0.04c0-1.67-1.21-3.13-2.99-3.13
				c-1.84,0-2.95,1.4-2.95,3.09v0.04c0,1.67,1.21,3.13,2.99,3.13C297.86,109.27,298.97,107.88,298.97,106.18z"/>
			<path class="st13" d="M316.4,100.44h3.22v1.61c0.74-0.95,1.72-1.83,3.32-1.83c2.46,0,3.85,1.58,3.85,4.22v7.35h-3.22v-6.33
				c0-1.53-0.7-2.3-1.95-2.3s-2.02,0.79-2.02,2.3v6.33h-3.22v-11.35H316.4z"/>
		</g>
	</g>
</g>
</svg>
