<?xml version="1.0" encoding="iso-8859-1"?>
<!-- Generator: Adobe Illustrator 19.0.0, SVG Export Plug-In . SVG Version: 6.00 Build 0)  -->
<svg version="1.1" id="Layer_1" xmlns="http://www.w3.org/2000/svg" xmlns:xlink="http://www.w3.org/1999/xlink" x="0px" y="0px"
	 viewBox="0 0 460 460" style="enable-background:new 0 0 460 460;" xml:space="preserve">
<g id="XMLID_995_">
	<polygon id="XMLID_996_" style="fill:#BEC8D6;" points="210,265.426 200,162.926 420,172.926 410,335.607 	"/>
	<polygon id="XMLID_997_" style="fill:#DAE0E7;" points="210,80.426 200,172.926 420,172.926 410,10.244 	"/>
	<polygon id="XMLID_998_" style="fill:#3897FF;" points="460,172.926 435,162.926 410,172.926 410,335.851 460,335.851 	"/>
	<rect id="XMLID_999_" x="410" y="10" style="fill:#8BC0FF;" width="50" height="162.926"/>
	<path id="XMLID_1000_" style="fill:#354A67;" d="M115,255.43l20,102.074c0,0,10.125-5.625,22.5-12.5s22.5-26,22.5-42.5V265.43
		L115,255.43z"/>
	<polygon id="XMLID_1001_" style="fill:#3897FF;" points="135,265 135,420 80,430 90,245 	"/>
	<polygon id="XMLID_1002_" style="fill:#8BC0FF;" points="90,245 90,430 45,420 45,265 	"/>
	<polygon id="XMLID_1003_" style="fill:#233145;" points="135,420 135,450 90,450 70,435 90,420 	"/>
	<rect id="XMLID_1004_" x="45" y="420" style="fill:#354A67;" width="45" height="30"/>
	<polygon id="XMLID_1005_" style="fill:#FA6121;" points="190,162.93 180,265.43 45,265.43 35,162.93 	"/>
	<polygon id="XMLID_1006_" style="fill:#FB7B46;" points="180,80.43 190,172.93 35,172.93 45,80.43 	"/>
	<path id="XMLID_1007_" style="fill:#233145;" d="M22.5,252.5C10.125,245.625,0,226.5,0,210v-37.074l22.5-20l22.5,20V265
		C45,265,34.875,259.375,22.5,252.5z"/>
	<path id="XMLID_1008_" style="fill:#354A67;" d="M22.5,93.351c-12.375,6.875-22.5,26-22.5,42.5v37.074h45V80.851
		C45,80.851,34.875,86.476,22.5,93.351z"/>
	<polygon id="XMLID_1009_" style="fill:#DAE0E7;" points="210,172.93 210,265.43 180,265.43 180,172.93 195,162.93 	"/>
	<rect id="XMLID_1010_" x="180" y="80.43" style="fill:#FFFFFF;" width="30" height="92.5"/>
</g>
<g>
</g>
<g>
</g>
<g>
</g>
<g>
</g>
<g>
</g>
<g>
</g>
<g>
</g>
<g>
</g>
<g>
</g>
<g>
</g>
<g>
</g>
<g>
</g>
<g>
</g>
<g>
</g>
<g>
</g>
</svg>
