<?xml version="1.0" encoding="iso-8859-1"?>
<!-- Generator: Adobe Illustrator 19.0.0, SVG Export Plug-In . SVG Version: 6.00 Build 0)  -->
<svg version="1.1" id="Layer_1" xmlns="http://www.w3.org/2000/svg" xmlns:xlink="http://www.w3.org/1999/xlink" x="0px" y="0px"
	 viewBox="0 0 512 512" style="enable-background:new 0 0 512 512;" xml:space="preserve">
<path style="fill:#B87FD9;" d="M428.616,204.436c-6.689-3.185-13.649-5.872-20.846-8.02c-6.757-2.019-13.721-3.559-20.846-4.582
	c-6.811-0.977-13.767-1.497-20.846-1.497c-19.471,0-38.062,3.836-55.057,10.791c-2.614,1.07-5.192,2.214-7.728,3.43
	c-8.878,4.253-17.262,9.378-25.04,15.263c-3.334,2.522-6.557,5.184-9.659,7.977c-1.034,0.931-2.055,1.876-3.063,2.836
	c-6.044,5.758-11.596,12.028-16.586,18.739c-1.115,1.5-2.201,3.02-3.26,4.561c-2.117,3.084-4.119,6.251-5.998,9.497
	c-0.939,1.623-1.85,3.267-2.727,4.929c-0.934,1.766-1.843,3.549-2.704,5.357c-2.247,4.717-4.23,9.578-5.966,14.553
	c-0.724,2.079-1.419,4.173-2.053,6.293c-2.021,6.757-3.562,13.722-4.585,20.846c-0.978,6.811-1.495,13.771-1.495,20.846
	c0,17.049,2.949,33.419,8.345,48.641c1.281,3.612,2.697,7.16,4.247,10.637c1.55,3.477,3.23,6.882,5.039,10.209
	c3.998,7.352,8.614,14.323,13.769,20.846c26.747,33.837,68.14,55.589,114.521,55.589c80.46,0,145.922-65.46,145.922-145.922
	C512,278.165,477.872,227.898,428.616,204.436z"/>
<path style="fill:#9CDD05;" d="M89.355,308.286c12.296-15.932,27.525-29.486,44.874-39.848c7.21-4.308,14.784-8.066,22.668-11.21
	c7.741-3.088,15.779-5.584,24.056-7.438c-19.812-18.268-45.78-28.534-73.079-28.534C48.392,221.257,0,269.649,0,329.132
	c0,11.513,9.333,20.846,20.846,20.846h45.308c2.693-7.209,5.888-14.171,9.549-20.846C79.716,321.817,84.287,314.85,89.355,308.286z"
	/>
<g>
	<path style="fill:#EFC27B;" d="M128.721,117.031c0-11.239,2.161-21.976,6.049-31.85c2.607-6.619,5.997-12.842,10.063-18.561
		c-10.36-7.617-23.139-12.13-36.958-12.13c-34.485,0-62.538,28.056-62.538,62.539s28.053,62.536,62.538,62.536
		c13.817,0,26.595-4.512,36.958-12.131c-4.066-5.716-7.457-11.941-10.064-18.56C130.882,139.002,128.721,128.265,128.721,117.031z"
		/>
	<path style="fill:#EFC27B;" d="M144.833,66.619c-4.066,5.717-7.456,11.942-10.063,18.561c-3.888,9.874-6.049,20.611-6.049,31.85
		c0,11.236,2.161,21.973,6.047,31.844c2.607,6.621,5.998,12.844,10.064,18.56c15.818,22.245,41.779,36.8,71.093,36.8
		c48.086,0,87.206-39.119,87.206-87.204c0-48.087-39.12-87.207-87.206-87.207C186.613,29.824,160.653,44.375,144.833,66.619z"/>
</g>
<path style="fill:#5A2479;" d="M429.467,318.251c-1.226-3.772-4.489-6.523-8.416-7.095l-31.53-4.579l-14.097-28.571
	c-1.755-3.556-5.378-5.812-9.346-5.812s-7.592,2.256-9.349,5.812l-14.096,28.57l-31.532,4.579c-3.925,0.571-7.189,3.324-8.413,7.095
	c-1.23,3.776-0.203,7.915,2.638,10.684l22.815,22.24l-5.387,31.404c-0.67,3.909,0.938,7.863,4.144,10.196
	c3.21,2.331,7.464,2.638,10.976,0.791l28.203-14.824l28.202,14.824c1.523,0.8,3.187,1.197,4.846,1.197c0.013,0,0.021,0,0.031,0
	c5.756-0.001,10.422-4.667,10.422-10.423c0-0.874-0.108-1.723-0.311-2.535l-5.253-30.63l22.814-22.24
	C429.671,326.165,430.693,322.025,429.467,318.251z"/>
<path style="fill:#933EC5;" d="M337.875,393.564c-3.512,1.847-7.767,1.538-10.976-0.791c-3.208-2.333-4.815-6.286-4.144-10.196
	l5.387-31.404l-22.815-22.24c-2.841-2.768-3.866-6.908-2.636-10.684c1.224-3.772,4.487-6.523,8.413-7.095l31.532-4.579
	l14.099-28.571c1.757-3.556,5.38-5.812,9.349-5.812v-81.856c-47.93,0-90.517,23.246-117.133,59.037
	c-4.458,5.995-8.475,12.338-11.985,18.988c-0.934,1.766-1.843,3.549-2.704,5.357c-2.247,4.717-4.23,9.578-5.966,14.553
	c-0.724,2.079-1.419,4.173-2.053,6.293c-2.021,6.757-3.56,13.722-4.585,20.846c-0.978,6.811-1.495,13.771-1.495,20.846
	c0,17.049,2.949,33.419,8.345,48.641c2.563,7.224,5.667,14.193,9.286,20.846c3.998,7.352,8.614,14.323,13.769,20.846
	c26.747,33.837,68.14,55.589,114.521,55.589v-103.44L337.875,393.564z"/>
<path style="fill:#A4E276;" d="M228.502,384.898c-5.396-15.222-8.345-31.591-8.345-48.641c0-7.075,0.517-14.035,1.495-20.846
	c1.023-7.124,2.564-14.089,4.585-20.846c0.634-2.119,1.327-4.214,2.053-6.293c1.736-4.975,3.719-9.837,5.966-14.553
	c0.862-1.809,1.771-3.591,2.704-5.357c3.51-6.65,7.527-12.993,11.985-18.988c-10.813-2.274-21.862-3.448-33.019-3.448
	c-12.011,0-23.713,1.341-34.973,3.865c-8.277,1.854-16.315,4.35-24.056,7.438c-7.884,3.145-15.457,6.903-22.668,11.21
	c-17.349,10.362-32.578,23.916-44.874,39.848c-5.067,6.565-9.639,13.53-13.653,20.846c-3.661,6.675-6.857,13.637-9.549,20.846
	c-6.489,17.37-10.046,36.159-10.046,55.767c0,11.513,9.333,20.846,20.846,20.846h174.604c-5.156-6.523-9.771-13.494-13.769-20.846
	C234.169,399.091,231.065,392.123,228.502,384.898z"/>
<path style="fill:#ECB45C;" d="M144.833,66.619c-4.066,5.717-7.456,11.942-10.063,18.56c-3.888,9.874-6.049,20.611-6.049,31.85
	c0,11.236,2.161,21.973,6.048,31.844c2.607,6.621,5.998,12.844,10.064,18.56c15.818,22.245,41.778,36.799,71.093,36.799V29.821
	C186.613,29.824,160.653,44.375,144.833,66.619z"/>
<path style="fill:#64C37D;" d="M156.898,257.228c-7.884,3.145-15.457,6.903-22.668,11.21
	c-17.349,10.362-32.578,23.916-44.874,39.848c-5.067,6.565-9.639,13.53-13.653,20.846c-3.661,6.675-6.857,13.637-9.549,20.846
	c-6.489,17.37-10.045,36.161-10.045,55.767c0,11.513,9.333,20.846,20.846,20.846h138.973V245.925
	c-12.011,0-23.713,1.341-34.973,3.865C172.677,251.645,164.638,254.141,156.898,257.228z"/>
<path style="fill:#ECB45C;" d="M45.337,117.029c0,34.347,27.836,62.307,62.135,62.527V54.5
	C73.173,54.718,45.337,82.679,45.337,117.029z"/>
<g>
</g>
<g>
</g>
<g>
</g>
<g>
</g>
<g>
</g>
<g>
</g>
<g>
</g>
<g>
</g>
<g>
</g>
<g>
</g>
<g>
</g>
<g>
</g>
<g>
</g>
<g>
</g>
<g>
</g>
</svg>
